<svg xmlns="http://www.w3.org/2000/svg" viewBox="0 0 775 230"><g id="bg"><rect fill="#FFB000" width="775" height="230"/></g><g id="logo"><g transform="translate(-111.95 0)"><path fill="#1f1f1f" d="M350.25,100.67s-14.76,1.26-17.8,13.42l-5.23,42.59s-.66,13.49,11.56,13.49H386.9c1.43,0,16.3-.43,19-14.83l5.2-42.29c.55-10.84-12-12.38-12-12.38h-4.79m-6.45,52.47H346l4.35-35.45h41.86Z"/><polygon fill="#1f1f1f" points="305.43 100.67 299.68 147.49 269.17 100.67 263.08 100.67 244.77 100.67 236.23 170.17 254.54 170.17 260.33 123.04 291.33 170.17 296.9 170.17 300.67 170.17 315.21 170.17 323.74 100.67 305.43 100.67"/><path fill="#1f1f1f" d="M472.25,150.58s16.49.09,19.91-17.58L494,118l.2-1.61c.3-4-.11-14-11.83-15.68H423.82l-8.53,69.5H433.6l2.4-19.59m38.92-26.31h0l-.31,2.59c-.94,5.62-2.94,6.57-3.85,6.7H438.09l2-15.87h32.77C474.19,118.1,475.37,119.59,474.92,124.27Z"/><path fill="#1f1f1f" d="M564.21,100.67H505.66l-8.54,69.5h18.31l2.41-19.59h19l12.57,19.59h22.34l-14.46-20c5-1,14.22-4.49,16.68-17.2l1.84-15,.2-1.61C576.35,112.39,575.93,102.36,564.21,100.67Zm-42.33,17h32.77c1.37.41,2.55,1.9,2.11,6.58h0l-.32,2.59c-.93,5.62-2.94,6.57-3.85,6.7H519.93Z"/><path fill="#1f1f1f" d="M645.67,170.17h19.89l-21.39-69.5H622.62l-45.43,69.5H595.5l7.7-11.79h39ZM613.4,142.78l16.7-25.55,7.51,25.55Z"/><polygon fill="#1f1f1f" points="722.85 117.85 739.89 100.67 762.67 100.67 732.95 131.7 722.85 117.85"/><polygon fill="#1f1f1f" points="728.58 133.56 728.58 133.55 704.56 100.67 679.89 100.67 705.58 135.15 671 170.17 696.11 170.17 729.7 135.09 728.58 133.56"/><polygon fill="#1f1f1f" points="718.88 153 731.67 170.17 755.33 170.17 732.35 138.71"/></g></g></svg>
