<svg xmlns="http://www.w3.org/2000/svg" viewBox="-38.083 -19.623 282.566 282.566" width="1080" height="1080"><defs><clipPath id="circ"><circle cx="103.2" cy="121.66" r="141.28295551429855"/></clipPath></defs><g clip-path="url(#circ)"><circle cx="103.2" cy="121.66" r="141.28295551429855" fill="#000000"/><polygon fill="#FFB000" points="114.72 154.58 115.14 117.86 52.67 57.59 52.67 57.47 46.89 57.47 46.08 57.47 19.56 57.47 19.56 185.92 46.89 185.92 46.89 89.84 114.72 154.58"/><polygon fill="#FFB000" points="70.55 128.62 70 162.81 91.82 185.88 128.75 185.92 70.55 128.62"/><path fill="#9c9a9a" d="M170.67,57.47c-1.88-.08-3.56-.07-5.06,0H89.67L114.5,84.81h56.33s9.84-.45,9.84,14-9.86,15.72-9.86,15.72H127.22v52.25l18.95,19.14h7V141.86h17.64s31.86,2.95,36.3-29.5V88.14S206.89,59,170.67,57.47Z"/></g><circle cx="103.2" cy="121.66" r="135.154" fill="none" stroke="#FFB000" stroke-width="12.257"/></svg>